<?xml version="1.0" encoding="UTF-8"?><svg xmlns="http://www.w3.org/2000/svg" xmlns:xlink="http://www.w3.org/1999/xlink" viewBox="0 0 100 60"><defs><style>.cls-1{fill:gray;}.cls-2{clip-path:url(#clippath);}.cls-3,.cls-4{fill:none;}.cls-4{stroke:#ccc;stroke-miterlimit:10;}.cls-5{fill:#b3b3b3;}.cls-6{fill:#f2f2f2;}.cls-7{opacity:.71;}</style><clipPath id="clippath"><rect class="cls-3" x="-2096" width="1920" height="1080"/></clipPath></defs><g id="_배경"><g class="cls-2"><g><polygon class="cls-4" points="-7746.09 562.67 -1096.74 -3169.1 5552.61 562.67 -1096.74 4294.44 -7746.09 562.67"/><line class="cls-4" x1="-2009.4" y1="3782.24" x2="4639.95" y2="50.46"/><line class="cls-4" x1="-2139.77" y1="3709.07" x2="4509.57" y2="-22.71"/><line class="cls-4" x1="-2270.15" y1="3635.89" x2="4379.19" y2="-95.88"/><line class="cls-4" x1="-2400.53" y1="3562.72" x2="4248.81" y2="-169.05"/><line class="cls-4" x1="-2530.91" y1="3489.55" x2="4118.43" y2="-242.22"/><line class="cls-4" x1="-2661.29" y1="3416.38" x2="3988.06" y2="-315.4"/><line class="cls-4" x1="-2791.67" y1="3343.21" x2="3857.68" y2="-388.57"/><line class="cls-4" x1="-2922.05" y1="3270.03" x2="3727.3" y2="-461.74"/><line class="cls-4" x1="-3052.43" y1="3196.86" x2="3596.92" y2="-534.91"/><line class="cls-4" x1="-3182.81" y1="3123.69" x2="3466.54" y2="-608.08"/><line class="cls-4" x1="-3313.19" y1="3050.52" x2="3336.16" y2="-681.26"/><line class="cls-4" x1="-3443.57" y1="2977.35" x2="3205.78" y2="-754.43"/><line class="cls-4" x1="-3573.95" y1="2904.17" x2="3075.4" y2="-827.6"/><line class="cls-4" x1="-3704.33" y1="2831" x2="2945.02" y2="-900.77"/><line class="cls-4" x1="-3834.71" y1="2757.83" x2="2814.64" y2="-973.94"/><line class="cls-4" x1="-3965.09" y1="2684.66" x2="2684.26" y2="-1047.12"/><line class="cls-4" x1="-4095.47" y1="2611.49" x2="2553.88" y2="-1120.29"/><line class="cls-4" x1="-4225.84" y1="2538.31" x2="2423.5" y2="-1193.46"/><line class="cls-4" x1="-4356.22" y1="2465.14" x2="2293.12" y2="-1266.63"/><line class="cls-4" x1="-4486.6" y1="2391.97" x2="2162.74" y2="-1339.8"/><line class="cls-4" x1="-4616.98" y1="2318.8" x2="2032.36" y2="-1412.98"/><line class="cls-4" x1="-4747.36" y1="2245.63" x2="1901.99" y2="-1486.15"/><line class="cls-4" x1="-4877.74" y1="2172.45" x2="1771.61" y2="-1559.32"/><line class="cls-4" x1="-5008.12" y1="2099.28" x2="1641.23" y2="-1632.49"/><line class="cls-4" x1="-5138.5" y1="2026.11" x2="1510.85" y2="-1705.66"/><line class="cls-4" x1="-5268.88" y1="1952.94" x2="1380.47" y2="-1778.84"/><line class="cls-4" x1="-5399.26" y1="1879.77" x2="1250.09" y2="-1852.01"/><line class="cls-4" x1="-5529.64" y1="1806.59" x2="1119.71" y2="-1925.18"/><line class="cls-4" x1="-5660.02" y1="1733.42" x2="989.33" y2="-1998.35"/><line class="cls-4" x1="-5790.4" y1="1660.25" x2="858.95" y2="-2071.52"/><line class="cls-4" x1="-5920.78" y1="1587.08" x2="728.57" y2="-2144.7"/><line class="cls-4" x1="-6051.16" y1="1513.91" x2="598.19" y2="-2217.87"/><line class="cls-4" x1="-6181.54" y1="1440.73" x2="467.81" y2="-2291.04"/><line class="cls-4" x1="-6311.91" y1="1367.56" x2="337.43" y2="-2364.21"/><line class="cls-4" x1="-6442.29" y1="1294.39" x2="207.05" y2="-2437.38"/><line class="cls-4" x1="-6572.67" y1="1221.22" x2="76.67" y2="-2510.56"/><line class="cls-4" x1="-1227.12" y1="-3095.93" x2="5422.23" y2="635.84"/><line class="cls-4" x1="-1357.5" y1="-3022.76" x2="5291.85" y2="709.01"/><line class="cls-4" x1="-1487.88" y1="-2949.59" x2="5161.47" y2="782.18"/><line class="cls-4" x1="-1618.26" y1="-2876.42" x2="5031.09" y2="855.36"/><line class="cls-4" x1="-1748.64" y1="-2803.24" x2="4900.71" y2="928.53"/><line class="cls-4" x1="-1879.02" y1="-2730.07" x2="4770.33" y2="1001.7"/><line class="cls-4" x1="-2009.4" y1="-2656.9" x2="4639.95" y2="1074.87"/><line class="cls-4" x1="-2139.77" y1="-2583.73" x2="4509.57" y2="1148.04"/><line class="cls-4" x1="-2270.15" y1="-2510.56" x2="4379.19" y2="1221.22"/><line class="cls-4" x1="-2400.53" y1="-2437.38" x2="4248.81" y2="1294.39"/><line class="cls-4" x1="-2530.91" y1="-2364.21" x2="4118.43" y2="1367.56"/><line class="cls-4" x1="-2661.29" y1="-2291.04" x2="3988.06" y2="1440.73"/><line class="cls-4" x1="-2791.67" y1="-2217.87" x2="3857.68" y2="1513.91"/><line class="cls-4" x1="-2922.05" y1="-2144.7" x2="3727.3" y2="1587.08"/><line class="cls-4" x1="-3052.43" y1="-2071.52" x2="3596.92" y2="1660.25"/><line class="cls-4" x1="-3182.81" y1="-1998.35" x2="3466.54" y2="1733.42"/><line class="cls-4" x1="-3313.19" y1="-1925.18" x2="3336.16" y2="1806.59"/><line class="cls-4" x1="-3443.57" y1="-1852.01" x2="3205.78" y2="1879.77"/><line class="cls-4" x1="-3573.95" y1="-1778.84" x2="3075.4" y2="1952.94"/><line class="cls-4" x1="-3704.33" y1="-1705.66" x2="2945.02" y2="2026.11"/><line class="cls-4" x1="-3834.71" y1="-1632.49" x2="2814.64" y2="2099.28"/><line class="cls-4" x1="-3965.09" y1="-1559.32" x2="2684.26" y2="2172.45"/><line class="cls-4" x1="-4095.47" y1="-1486.15" x2="2553.88" y2="2245.63"/><line class="cls-4" x1="-4225.84" y1="-1412.98" x2="2423.5" y2="2318.8"/><line class="cls-4" x1="-4356.22" y1="-1339.8" x2="2293.12" y2="2391.97"/><line class="cls-4" x1="-4486.6" y1="-1266.63" x2="2162.74" y2="2465.14"/><line class="cls-4" x1="-4616.98" y1="-1193.46" x2="2032.36" y2="2538.31"/><line class="cls-4" x1="-4747.36" y1="-1120.29" x2="1901.99" y2="2611.49"/><line class="cls-4" x1="-4877.74" y1="-1047.12" x2="1771.61" y2="2684.66"/><line class="cls-4" x1="-5008.12" y1="-973.94" x2="1641.23" y2="2757.83"/><line class="cls-4" x1="-5138.5" y1="-900.77" x2="1510.85" y2="2831"/><line class="cls-4" x1="-5268.88" y1="-827.6" x2="1380.47" y2="2904.17"/><line class="cls-4" x1="-5399.26" y1="-754.43" x2="1250.09" y2="2977.35"/><line class="cls-4" x1="-5529.64" y1="-681.26" x2="1119.71" y2="3050.52"/><line class="cls-4" x1="-5660.02" y1="-608.08" x2="989.33" y2="3123.69"/><line class="cls-4" x1="-5790.4" y1="-534.91" x2="858.95" y2="3196.86"/><line class="cls-4" x1="-5920.78" y1="-461.74" x2="728.57" y2="3270.03"/><line class="cls-4" x1="-6051.16" y1="-388.57" x2="598.19" y2="3343.21"/><line class="cls-4" x1="-6181.54" y1="-315.4" x2="467.81" y2="3416.38"/><line class="cls-4" x1="-6311.91" y1="-242.22" x2="337.43" y2="3489.55"/><line class="cls-4" x1="-6442.29" y1="-169.05" x2="207.05" y2="3562.72"/><line class="cls-4" x1="-6572.67" y1="-95.88" x2="76.67" y2="3635.89"/></g></g></g><g id="_데이터"><g class="cls-7"><rect class="cls-6" x=".7" y=".69" width="98.6" height="58.62"/><path class="cls-1" d="M99.3,60H.7c-.39,0-.7-.31-.7-.69V.69C0,.31,.31,0,.7,0H99.3c.39,0,.7,.31,.7,.69V59.31c0,.38-.31,.69-.7,.69ZM1.4,58.62H98.6V1.38H1.4V58.62Z"/><path class="cls-5" d="M99.3,59.79H.7c-.27,0-.49-.22-.49-.48V.69C.21,.42,.43,.21,.7,.21H99.3c.27,0,.49,.22,.49,.48V59.31c0,.27-.22,.48-.49,.48ZM1.19,58.82H98.81V1.18H1.19V58.82Z"/><path class="cls-6" d="M99.3,59.45H.7c-.08,0-.14-.06-.14-.14V.69c0-.08,.06-.14,.14-.14H99.3c.08,0,.14,.06,.14,.14V59.31c0,.08-.06,.14-.14,.14ZM.84,59.17H99.16V.83H.84V59.17Z"/></g></g></svg>