<?xml version="1.0" encoding="UTF-8"?>
<svg id="uuid-38e3c1db-5cdb-4c1e-afec-8201e98ae3ba" data-name="레이어 2" xmlns="http://www.w3.org/2000/svg" viewBox="0 0 70 60">
  <g id="uuid-8eb546da-335f-44d9-a31f-b3af546c68ee" data-name="icomer">
    <g id="uuid-ae72942e-e6d3-42d2-9061-e553609138ef" data-name="gen">
      <g>
        <g>
          <path d="m58.8,43.15h-29.79l3.73,6.33h24.38s1.68-.23,1.68-1.85v-4.48Z" style="fill: #7b7b83;"/>
          <polygon points="29.01 43.15 29.72 44.35 58.8 44.35 58.8 43.08 29.01 43.15" style="fill: #5c5d64;"/>
        </g>
        <rect x="27.4" y="35.24" width="35.38" height="7.87" style="fill: #9999a1;"/>
        <path d="m24.03,35.24H1.95v12.31h22.08c1.86,0,3.37-1.77,3.37-3.95v-8.36h-3.37Z" style="fill: #999a9f;"/>
        <g>
          <path d="m27.4,43.6v-8.36h-8.09v12.31h4.72c1.86,0,3.37-1.77,3.37-3.95Z" style="fill: #22262a;"/>
          <path d="m19.71,35.24s1.51,10.92,7.69,7.02v-7.02h-7.69Z" style="fill: #3b3f44;"/>
        </g>
        <g>
          <g>
            <rect x="8.05" y="37.17" width="10.39" height="1.51" style="fill: #3f3f46;"/>
            <rect x="8.05" y="37.17" width="10.39" height=".35" style="fill: #24282d;"/>
          </g>
          <g>
            <rect x="8.05" y="40.64" width="10.39" height="1.51" style="fill: #3f3f46;"/>
            <rect x="8.05" y="40.64" width="10.39" height=".35" style="fill: #24282d;"/>
          </g>
          <g>
            <rect x="8.05" y="44.12" width="10.39" height="1.51" style="fill: #3f3f46;"/>
            <rect x="8.05" y="44.12" width="10.39" height=".35" style="fill: #24282d;"/>
          </g>
        </g>
        <g>
          <rect x="36.07" y="38.09" width="15.92" height="4.1" style="fill: #e31c30;"/>
          <rect x="36.07" y="42.19" width="15.92" height="8.87" style="fill: #3b3f44;"/>
          <path d="m47.91,38.09s-.61,3.9-11.84,2.59v1.51h15.92v-4.1h-4.08Z" style="fill: #b61d22;"/>
          <path d="m47.91,42.19s-.61,3.9-11.84,2.59v6.28h15.92v-8.87h-4.08Z" style="fill: #23272d;"/>
        </g>
        <g>
          <rect x="51.99" y="39.59" width="5.21" height=".95" style="fill: #e31c30;"/>
          <rect x="51.99" y="40.53" width="5.21" height=".16" style="fill: #b41d23;"/>
        </g>
        <g>
          <g>
            <rect x="30.86" y="39.59" width="5.21" height=".95" style="fill: #3d3f44;"/>
            <rect x="30.86" y="40.53" width="5.21" height=".16" style="fill: #22262a;"/>
          </g>
          <g>
            <rect x="28.34" y="37.07" width="6.12" height=".81" transform="translate(68.88 6.07) rotate(90)" style="fill: #3d3f44;"/>
            <rect x="27.87" y="37.4" width="6.12" height=".14" transform="translate(68.4 6.55) rotate(90)" style="fill: #22262a;"/>
          </g>
        </g>
      </g>
      <g>
        <polygon points="49.29 54.17 51.22 59.61 54.69 59.61 56.36 54.17 49.29 54.17" style="fill: #c9a12f;"/>
        <path d="m49.29,54.17l.56,1.58s4.33-2.33,4.84,3.86l1.67-5.43h-7.07Z" style="fill: #b58721;"/>
        <polygon points="56.36 54.17 49.29 54.17 49.44 54.6 56.23 54.6 56.36 54.17" style="fill: #946025;"/>
      </g>
      <g>
        <g>
          <g>
            <polygon points="22.89 10.93 28.19 23.37 22.89 35.81 62.77 35.81 62.77 10.93 22.89 10.93" style="fill: #202329;"/>
            <g>
              <rect x="29.12" y="13.35" width="30.44" height="19.29" style="fill: #c9a12f;"/>
              <path d="m29.12,32.65V13.35h30.44v4.56s-22.72-7.98-27.76,6.57c0,0-.46,3.99.93,8.25l-3.61-.08Z" style="fill: #b6841d;"/>
              <g>
                <ellipse cx="48.78" cy="19.86" rx=".94" ry="1.11" style="fill: #dc6164;"/>
                <path d="m49.28,18.92c.09.17.14.37.14.58,0,.61-.42,1.11-.94,1.11-.18,0-.35-.06-.5-.17.17.31.46.52.8.52.52,0,.94-.5.94-1.11,0-.4-.18-.74-.45-.94Z" style="fill: #bd535b;"/>
              </g>
              <g>
                <rect x="54.06" y="18.39" width="2.81" height="3.3" style="fill: #e3212f;"/>
                <rect x="55.16" y="19.98" width=".61" height="2.81" transform="translate(76.85 -34.08) rotate(90)" style="fill: #c71621;"/>
                <rect x="55.16" y="17.3" width=".61" height="2.81" transform="translate(74.16 -36.77) rotate(90)" style="fill: #c71621;"/>
                <rect x="56.35" y="18.39" width=".52" height="3.3" style="fill: #ab2b24;"/>
                <rect x="54.06" y="18.39" width=".52" height="3.3" style="fill: #ab2b24;"/>
              </g>
              <g>
                <rect x="54.06" y="25.43" width="2.81" height="3.3" style="fill: #e3212f;"/>
                <rect x="55.16" y="27.02" width=".61" height="2.81" transform="translate(83.88 -27.05) rotate(90)" style="fill: #c71621;"/>
                <rect x="55.16" y="24.33" width=".61" height="2.81" transform="translate(81.2 -29.73) rotate(90)" style="fill: #c71621;"/>
                <rect x="56.35" y="25.43" width=".52" height="3.3" style="fill: #ab2b24;"/>
                <rect x="54.06" y="25.43" width=".52" height="3.3" style="fill: #ab2b24;"/>
              </g>
              <g>
                <path d="m44.16,19.72v-1.81h-2.58v1.81c-1.26.6-2.15,2.05-2.15,3.75,0,2.23,1.54,4.04,3.44,4.04s3.44-1.81,3.44-4.04c0-1.7-.89-3.15-2.15-3.75Z" style="fill: #1a7dc2;"/>
                <path d="m45.04,20.33c.24.55.38,1.17.38,1.83,0,2.23-1.54,4.04-3.44,4.04-.82,0-1.58-.34-2.17-.91.57,1.31,1.73,2.21,3.07,2.21,1.9,0,3.44-1.81,3.44-4.04,0-1.27-.5-2.39-1.27-3.14Z" style="fill: #145fad;"/>
                <path d="m44.16,19.72s-1.06-.44-2.58,0v-.53h2.58v.53Z" style="fill: #145fad;"/>
              </g>
              <g>
                <path d="m36.41,19.72v-1.81h-2.58v1.81c-1.26.6-2.15,2.05-2.15,3.75,0,2.23,1.54,4.04,3.44,4.04s3.44-1.81,3.44-4.04c0-1.7-.89-3.15-2.15-3.75Z" style="fill: #1a7dc2;"/>
                <path d="m37.29,20.33c.24.55.38,1.17.38,1.83,0,2.23-1.54,4.04-3.44,4.04-.82,0-1.58-.34-2.17-.91.57,1.31,1.73,2.21,3.07,2.21,1.9,0,3.44-1.81,3.44-4.04,0-1.27-.5-2.39-1.27-3.14Z" style="fill: #145fad;"/>
                <path d="m36.41,19.72s-1.06-.44-2.58,0v-.53h2.58v.53Z" style="fill: #145fad;"/>
              </g>
              <g>
                <ellipse cx="51.88" cy="19.86" rx=".94" ry="1.11" style="fill: #75a541;"/>
                <path d="m52.38,18.92c.09.17.14.37.14.58,0,.61-.42,1.11-.94,1.11-.18,0-.35-.06-.5-.17.17.31.46.52.8.52.52,0,.94-.5.94-1.11,0-.4-.18-.74-.45-.94Z" style="fill: #648a33;"/>
              </g>
            </g>
          </g>
          <polygon points="58.73 10.93 58.73 32.63 21.96 32.63 21.96 35.81 62.77 35.81 62.77 10.93 58.73 10.93" style="fill: #0f1316;"/>
        </g>
        <g>
          <polygon points="15.07 10.93 12.42 10.93 9.77 10.93 15.07 23.37 9.77 35.81 12.42 35.81 15.07 35.81 20.37 23.37 15.07 10.93" style="fill: #caa131;"/>
          <polygon points="7.19 10.93 6.99 10.93 4.54 10.93 1.89 10.93 1.89 35.81 4.54 35.81 6.99 35.81 7.19 35.81 12.49 23.37 7.19 10.93" style="fill: #caa131;"/>
          <path d="m28.32,23.37l-5.3-12.44h-5.3l5.3,12.44-3.79,8.9c2.64.28,4.62.42,5.11.45l3.98-9.35Z" style="fill: #caa131;"/>
          <path d="m1.95,28.11l-.06,7.7h15.83l1.51-3.54c-5.47-.59-13.74-1.83-17.28-4.16Z" style="fill: #705d27;"/>
          <path d="m19.23,32.27l-1.51,3.54h5.3l1.32-3.09c-.49-.03-2.47-.16-5.11-.45Z" style="fill: #705d27;"/>
          <polygon points="9.84 10.93 7.19 10.93 12.49 23.37 7.19 35.81 9.84 35.81 15.14 23.37 9.84 10.93" style="fill: #202329;"/>
          <polygon points="17.79 10.93 15.14 10.93 20.44 23.37 15.14 35.81 17.79 35.81 23.09 23.37 17.79 10.93" style="fill: #202329;"/>
        </g>
      </g>
      <path d="m60.23,0H0v48.97C0,51.84,1.99,54.17,4.44,54.17h55.79c2.45,0,4.44-2.33,4.44-5.21V0h-4.44Zm2.54,7.52v39.13c0,2.57-1.87,4.66-4.18,4.66H6.07c-2.31,0-4.18-2.08-4.18-4.66V2.87h60.88v4.66Z" style="fill: #b2851d;"/>
      <g>
        <g>
          <rect x="65.76" y="3.93" width="3.6" height="27.83" style="fill: #c9a12f;"/>
          <rect x="68.71" y="3.93" width=".64" height="27.83" style="fill: #b58721;"/>
        </g>
        <g>
          <g>
            <rect x="64.86" y="31.76" width="5.14" height=".92" style="fill: #3a4046;"/>
            <rect x="64.86" y="32.69" width="5.14" height=".92" style="fill: #16191d;"/>
          </g>
          <g>
            <path d="m65.63,33.61v8.15c0,1.17.81,2.11,1.8,2.11s1.8-.95,1.8-2.11v-8.15h-3.6Z" style="fill: #3a4046;"/>
            <path d="m65.63,33.61h3.6v8.15s.16-7.02-3.6-8.15Z" style="fill: #212528;"/>
          </g>
        </g>
        <g>
          <g>
            <path d="m64.66,3.93h4.69v6.18s-1.41,2.57-3.89,2.87h-.8V3.93Z" style="fill: #caa02f;"/>
            <path d="m65.08,3.93h-.42v9.04h.8c2.47-.3,3.89-2.87,3.89-2.87v-.49c-4.4.83-4.27-5.69-4.27-5.69Z" style="fill: #b5841e;"/>
            <rect x="64.66" y="3.93" width=".26" height="9.04" style="fill: #6d4720;"/>
          </g>
          <g>
            <ellipse cx="67.27" cy="6.24" rx=".96" ry="1.13" style="fill: #110e0d;"/>
            <ellipse cx="67.56" cy="5.9" rx=".29" ry=".34" style="fill: #fff;"/>
          </g>
        </g>
      </g>
      <g>
        <path d="m62.77,2.87V0h-3.51s0,1.43-6.56,1.43h-20.38v1.43h30.44Z" style="fill: #b5841e;"/>
        <path d="m1.89,2.87V0h3.51s0,1.43,6.56,1.43h20.38v1.43H1.89Z" style="fill: #b5841e;"/>
      </g>
      <path d="m0,0v48.97c0,2.88,1.99,5.21,4.44,5.21h55.79c2.45,0,4.44-2.33,4.44-5.21V0M64.02,0v48.42c0,2.84-1.95,5.15-4.35,5.15H4.99c-2.4,0-4.35-2.3-4.35-5.15V0" style="fill: #926626;"/>
      <g>
        <path d="m61.55,5.78H3.12c-.68,0-1.23.64-1.23,1.44v3.71h60.88v-3.71c0-.79-.55-1.44-1.23-1.44Z" style="fill: #a5812a;"/>
        <path d="m1.89,7.22v3.71h60.88v-3.71c0-.79-.55-1.44-1.23-1.44h-3.99c-.77,1.55-2.37,3.05-5.67,3.19,0,0-43.65,1.76-49.44-2.95-.33.26-.55.7-.55,1.2Z" style="fill: #896126;"/>
      </g>
      <g>
        <g>
          <polygon points="12.05 55.71 3.93 46.19 3.28 46.96 11.4 56.48 12.05 55.71" style="fill: #7c7c81;"/>
          <polygon points="11.51 56.35 3.39 46.83 3.28 46.96 11.4 56.48 11.51 56.35" style="fill: #3d4044;"/>
        </g>
        <g>
          <polygon points="3.93 56.48 12.05 46.96 11.4 46.19 3.28 55.71 3.93 56.48" style="fill: #7c7c81;"/>
          <polygon points="3.39 55.84 11.51 46.32 11.4 46.19 3.28 55.71 3.39 55.84" style="fill: #3d4044;"/>
        </g>
        <path d="m7.72,42.61c-4.09,0-7.41,3.89-7.41,8.69s3.32,8.69,7.41,8.69,7.41-3.89,7.41-8.69-3.32-8.69-7.41-8.69Zm0,14.9c-2.92,0-5.29-2.78-5.29-6.2s2.37-6.2,5.29-6.2,5.29,2.78,5.29,6.2-2.37,6.2-5.29,6.2Z" style="fill: #3c3e44;"/>
        <g>
          <ellipse cx="7.55" cy="51.14" rx="1.38" ry="1.62" style="fill: #171b1f;"/>
          <ellipse cx="7.55" cy="51.14" rx="1.19" ry="1.4" style="fill: #3b3f41;"/>
        </g>
        <g>
          <ellipse cx="7.55" cy="51.14" rx="1.38" ry="1.62" style="fill: #171b1f;"/>
          <ellipse cx="7.55" cy="51.14" rx="1.19" ry="1.4" style="fill: #3b3f41;"/>
        </g>
        <path d="m7.72,42.61c-4.09,0-7.41,3.89-7.41,8.69s3.32,8.69,7.41,8.69,7.41-3.89,7.41-8.69-3.32-8.69-7.41-8.69Zm0,17.22c-4.01,0-7.27-3.82-7.27-8.53s3.25-8.53,7.27-8.53,7.27,3.82,7.27,8.53-3.25,8.53-7.27,8.53Z" style="fill: #171b1f;"/>
      </g>
      <path d="m56.95,4.07h-16.17c-.19,0-.34.21-.34.48v1.23h16.85v-1.23c0-.26-.15-.48-.34-.48Z" style="fill: #202329;"/>
    </g>
  </g>
</svg>