<?xml version="1.0" encoding="UTF-8"?>
<svg xmlns="http://www.w3.org/2000/svg" viewBox="0 0 40 38">
  <g style="fill: none; isolation: isolate;">
    <g id="uuid-b99aa875-d3ed-42a8-b517-84080a8b6b2a" data-name="레이어 2">
      <g id="uuid-8be138df-e927-4ad6-ab24-2066d1be0d34" data-name="icomer">
        <g id="uuid-471997b4-6862-4d39-9ad2-a511e99e267e" data-name="ats-2">
          <g>
            <rect width="40" height="38" style="fill: #999;"/>
            <rect x=".94" y=".9" width="38.11" height="36.21" style="fill: #e6e6e5; stroke: #7f8080; stroke-dasharray: 0 .85; stroke-miterlimit: 10; stroke-width: .28px;"/>
            <ellipse cx="32.83" cy="6.7" rx="2.69" ry="2.55" style="fill: #e2e0e0;"/>
            <polygon points="20.35 31.01 7.77 6.69 7.14 6.99 19.72 31.31 20.35 31.01" style="fill: #999;"/>
            <polygon points="19.61 31.01 32.19 6.69 32.83 6.99 20.24 31.31 19.61 31.01" style="fill: #999;"/>
            <g>
              <ellipse cx="7.3" cy="6.7" rx="2.69" ry="2.55" style="fill: #999;"/>
              <ellipse cx="7.3" cy="6.7" rx="2.37" ry="2.25" style="fill: #c6c0c0;"/>
            </g>
            <g>
              <ellipse cx="20" cy="31.53" rx="2.69" ry="2.55" style="fill: #e2e0e0;"/>
              <g>
                <ellipse cx="20" cy="31.53" rx="2.69" ry="2.55" style="fill: #999;"/>
                <ellipse cx="20" cy="31.53" rx="2.37" ry="2.25" style="fill: #c6c0c0;"/>
              </g>
            </g>
            <g>
              <ellipse cx="32.83" cy="6.7" rx="2.69" ry="2.55" style="fill: #999;"/>
              <ellipse cx="32.83" cy="6.7" rx="2.37" ry="2.25" style="fill: #c6c0c0;"/>
            </g>
          </g>
          <g style="fill: none; mix-blend-mode: darken; opacity: .8;">
            <g>
              <rect width="40" height="38" style="fill: #e37321;"/>
              <rect x=".94" y=".9" width="38.11" height="36.21" style="fill: #e37321; stroke: #e37321; stroke-dasharray: 0 .85; stroke-miterlimit: 10; stroke-width: .28px;"/>
              <ellipse cx="32.83" cy="6.7" rx="2.69" ry="2.55" style="fill: #e37321;"/>
              <polygon points="20.35 31.01 7.77 6.69 7.14 6.99 19.72 31.31 20.35 31.01" style="fill: #e37321;"/>
              <polygon points="19.61 31.01 32.19 6.69 32.83 6.99 20.24 31.31 19.61 31.01" style="fill: #e37321;"/>
              <g>
                <ellipse cx="7.3" cy="6.7" rx="2.69" ry="2.55" style="fill: #e37321;"/>
                <ellipse cx="7.3" cy="6.7" rx="2.37" ry="2.25" style="fill: #e37321;"/>
              </g>
              <g>
                <ellipse cx="20" cy="31.53" rx="2.69" ry="2.55" style="fill: #e37321;"/>
                <g>
                  <ellipse cx="20" cy="31.53" rx="2.69" ry="2.55" style="fill: #e37321;"/>
                  <ellipse cx="20" cy="31.53" rx="2.37" ry="2.25" style="fill: #e37321;"/>
                </g>
              </g>
              <g>
                <ellipse cx="32.83" cy="6.7" rx="2.69" ry="2.55" style="fill: #e37321;"/>
                <ellipse cx="32.83" cy="6.7" rx="2.37" ry="2.25" style="fill: #e37321;"/>
              </g>
            </g>
          </g>
        </g>
      </g>
    </g>
  </g>
</svg>