<?xml version="1.0" encoding="UTF-8"?>
<svg id="uuid-6aa52718-4c06-4208-bbdb-87ce70fdb310" data-name="레이어 2" xmlns="http://www.w3.org/2000/svg" xmlns:xlink="http://www.w3.org/1999/xlink" viewBox="0 0 25 25">
  <defs>
    <linearGradient id="uuid-f85d6e7a-c667-4aa3-ae36-941394729bc2" x1="4.49" y1="2.91" x2="20.51" y2="22.09" gradientUnits="userSpaceOnUse">
      <stop offset="0" stop-color="#999"/>
      <stop offset=".23" stop-color="#b7b7b7"/>
      <stop offset=".57" stop-color="#dedede"/>
      <stop offset=".83" stop-color="#f6f6f6"/>
      <stop offset="1" stop-color="#fff"/>
    </linearGradient>
    <radialGradient id="uuid-662d0afe-7bd7-4253-94ae-075f4b6c2f03" cx="115.84" cy="206.4" fx="115.84" fy="206.4" r="5.6" gradientTransform="translate(-219.29 -400.54) scale(2)" gradientUnits="userSpaceOnUse">
      <stop offset=".81" stop-color="#545454"/>
      <stop offset=".84" stop-color="#565656"/>
      <stop offset=".86" stop-color="#5e5e5e"/>
      <stop offset=".87" stop-color="#6c6c6c"/>
      <stop offset=".89" stop-color="#7f7f7f"/>
      <stop offset=".9" stop-color="#999998"/>
      <stop offset=".91" stop-color="#b8b8b7"/>
      <stop offset=".92" stop-color="#dcdcdc"/>
      <stop offset=".92" stop-color="#ededec"/>
      <stop offset=".93" stop-color="#e9e9e8"/>
      <stop offset=".95" stop-color="#dfdfde"/>
      <stop offset=".96" stop-color="#cdcdcc"/>
      <stop offset=".97" stop-color="#b4b4b3"/>
      <stop offset=".98" stop-color="#939393"/>
      <stop offset=".99" stop-color="#6c6c6c"/>
      <stop offset="1" stop-color="#545454"/>
    </radialGradient>
    <mask id="uuid-728e2a57-fe14-4387-905c-a9ada2daee53" data-name="mask" x="-14.25" y="-5.83" width="44.51" height="41.35" maskUnits="userSpaceOnUse">
      <rect x="-14.25" y="-5.83" width="44.51" height="41.35" style="fill: #fff;"/>
    </mask>
    <radialGradient id="uuid-9e4a1df0-0e68-40de-ae1c-828a769a076a" cx="115.84" cy="206.4" fx="115.84" fy="206.4" r="5.6" gradientTransform="translate(-219.29 -400.54) scale(2)" gradientUnits="userSpaceOnUse">
      <stop offset=".81" stop-color="#75191b"/>
      <stop offset=".84" stop-color="#771b1a"/>
      <stop offset=".86" stop-color="#7e231a"/>
      <stop offset=".88" stop-color="#8b311a"/>
      <stop offset=".89" stop-color="#9d441a"/>
      <stop offset=".9" stop-color="#b55e1a"/>
      <stop offset=".91" stop-color="#d27c1a"/>
      <stop offset=".92" stop-color="#f4a11a"/>
      <stop offset=".92" stop-color="#f5a21a"/>
      <stop offset=".94" stop-color="#f29f1a"/>
      <stop offset=".96" stop-color="#ea971a"/>
      <stop offset=".97" stop-color="#dd891a"/>
      <stop offset=".98" stop-color="#ca741a"/>
      <stop offset=".98" stop-color="#b25a1a"/>
      <stop offset=".99" stop-color="#953b1a"/>
      <stop offset="1" stop-color="#75191b"/>
    </radialGradient>
    <mask id="uuid-98fe83e4-58c5-4b81-aabb-070631274891" data-name="mask-1" x="-14.25" y="-5.83" width="44.51" height="41.35" maskUnits="userSpaceOnUse">
      <rect x="-14.25" y="-5.83" width="44.51" height="41.35" style="fill: #fff;"/>
    </mask>
    <radialGradient id="uuid-64926c09-3055-4763-bbe9-0d8540a7a9cd" cx="115.84" cy="206.4" fx="115.84" fy="206.4" r="5.6" gradientTransform="translate(-219.29 -400.54) scale(2)" gradientUnits="userSpaceOnUse">
      <stop offset=".81" stop-color="#472653"/>
      <stop offset=".83" stop-color="#4a2855"/>
      <stop offset=".85" stop-color="#56305e"/>
      <stop offset=".87" stop-color="#6a3d6c"/>
      <stop offset=".89" stop-color="#854f81"/>
      <stop offset=".91" stop-color="#a8679b"/>
      <stop offset=".92" stop-color="#c57ab0"/>
      <stop offset=".94" stop-color="#c278ae"/>
      <stop offset=".96" stop-color="#ba72a8"/>
      <stop offset=".97" stop-color="#ac699d"/>
      <stop offset=".98" stop-color="#975b8e"/>
      <stop offset=".99" stop-color="#7d4a7b"/>
      <stop offset=".99" stop-color="#5e3564"/>
      <stop offset="1" stop-color="#472653"/>
    </radialGradient>
    <mask id="uuid-b444eace-2d90-4f66-ad63-17e79423f3d6" data-name="mask-2" x="-14.25" y="-5.86" width="44.51" height="41.36" maskUnits="userSpaceOnUse">
      <rect x="-14.25" y="-5.86" width="44.51" height="41.35" style="fill: #fff;"/>
    </mask>
    <radialGradient id="uuid-9015bb88-1f9f-4bcd-8e77-cc7e0deab8dd" cx="115.84" cy="206.39" fx="115.84" fy="206.39" r="5.6" gradientTransform="translate(-219.29 -400.54) scale(2)" gradientUnits="userSpaceOnUse">
      <stop offset=".81" stop-color="#163f74"/>
      <stop offset=".84" stop-color="#174175"/>
      <stop offset=".86" stop-color="#1c497b"/>
      <stop offset=".88" stop-color="#255785"/>
      <stop offset=".89" stop-color="#316a94"/>
      <stop offset=".9" stop-color="#4284a6"/>
      <stop offset=".91" stop-color="#55a2bd"/>
      <stop offset=".92" stop-color="#6cc6d7"/>
      <stop offset=".94" stop-color="#6ac3d5"/>
      <stop offset=".96" stop-color="#65bbcf"/>
      <stop offset=".97" stop-color="#5cadc4"/>
      <stop offset=".98" stop-color="#4f98b5"/>
      <stop offset=".99" stop-color="#3e7ea2"/>
      <stop offset=".99" stop-color="#2a5f8b"/>
      <stop offset="1" stop-color="#163f74"/>
    </radialGradient>
    <mask id="uuid-e86bf9c0-9c5f-4e60-b026-fc16294b508a" data-name="mask-3" x="-2.29" y="-8.18" width="26.75" height="41.35" maskUnits="userSpaceOnUse">
      <rect x="-2.29" y="-8.18" width="26.75" height="41.35" style="fill: #fff;"/>
    </mask>
    <radialGradient id="uuid-6a29e7e1-f779-40a4-915a-cc49c2ede91b" cx="115.84" cy="206.4" fx="115.84" fy="206.4" r="5.6" gradientTransform="translate(-219.29 -400.54) scale(2)" gradientUnits="userSpaceOnUse">
      <stop offset=".81" stop-color="#2a973a"/>
      <stop offset=".84" stop-color="#2c9839"/>
      <stop offset=".86" stop-color="#349b39"/>
      <stop offset=".87" stop-color="#42a139"/>
      <stop offset=".88" stop-color="#55a938"/>
      <stop offset=".9" stop-color="#6fb437"/>
      <stop offset=".91" stop-color="#8ec136"/>
      <stop offset=".92" stop-color="#b2d034"/>
      <stop offset=".92" stop-color="#c7d934"/>
      <stop offset=".94" stop-color="#c4d734"/>
      <stop offset=".95" stop-color="#bcd434"/>
      <stop offset=".96" stop-color="#aece34"/>
      <stop offset=".97" stop-color="#99c635"/>
      <stop offset=".98" stop-color="#7fbb36"/>
      <stop offset=".99" stop-color="#5fad37"/>
      <stop offset="1" stop-color="#3a9d39"/>
      <stop offset="1" stop-color="#2a973a"/>
    </radialGradient>
    <linearGradient id="uuid-1fc4ec24-bcb5-48d2-bc1d-42d429746470" x1="6.62" y1="5.46" x2="18.38" y2="19.54" gradientUnits="userSpaceOnUse">
      <stop offset="0" stop-color="#c3c2c2"/>
      <stop offset=".07" stop-color="#c6c5c5"/>
      <stop offset=".64" stop-color="#dddddc"/>
      <stop offset="1" stop-color="#e6e6e5"/>
    </linearGradient>
    <linearGradient id="uuid-60b9fc36-5995-4d6d-8992-8b6fdca10e4c" x1="6.23" y1="4.82" x2="18.81" y2="19.88" gradientUnits="userSpaceOnUse">
      <stop offset="0" stop-color="#fff"/>
      <stop offset=".15" stop-color="#f6f6f6"/>
      <stop offset=".41" stop-color="#dedede"/>
      <stop offset=".72" stop-color="#b7b7b7"/>
      <stop offset="1" stop-color="#8f8f8f"/>
    </linearGradient>
  </defs>
  <g id="uuid-8432f83e-725b-4adc-acab-75d603cced5b" data-name="icomer">
    <g id="uuid-218c8d23-eda2-495d-ab71-f515d09598ce" data-name="gen-start-a">
      <g>
        <path d="m12.5,1.32c6.17,0,11.18,5.02,11.18,11.18s-5.02,11.18-11.18,11.18S1.32,18.67,1.32,12.5,6.33,1.32,12.5,1.32m0-1.32C5.6,0,0,5.6,0,12.5s5.6,12.5,12.5,12.5,12.5-5.6,12.5-12.5S19.4,0,12.5,0h0Z" style="fill: url(#uuid-f85d6e7a-c667-4aa3-ae36-941394729bc2);"/>
        <path d="m12.52,2.76c5.38,0,9.76,4.38,9.76,9.76s-4.38,9.76-9.76,9.76S2.76,17.9,2.76,12.52,7.14,2.76,12.52,2.76m0-1.44C6.34,1.32,1.32,6.34,1.32,12.52s5.02,11.2,11.2,11.2,11.2-5.02,11.2-11.2S18.71,1.32,12.52,1.32h0Z" style="fill: url(#uuid-662d0afe-7bd7-4253-94ae-075f4b6c2f03);"/>
        <g style="fill: none; mask: url(#uuid-728e2a57-fe14-4387-905c-a9ada2daee53);">
          <path d="m12.52,2.76c5.38,0,9.76,4.38,9.76,9.76s-4.38,9.76-9.76,9.76S2.76,17.9,2.76,12.52,7.14,2.76,12.52,2.76m0-1.44C6.34,1.32,1.32,6.34,1.32,12.52s5.02,11.2,11.2,11.2,11.2-5.02,11.2-11.2S18.71,1.32,12.52,1.32h0Z" style="fill: url(#uuid-9e4a1df0-0e68-40de-ae1c-828a769a076a);"/>
        </g>
        <g style="fill: none; mask: url(#uuid-98fe83e4-58c5-4b81-aabb-070631274891);">
          <path d="m12.52,2.76c5.38,0,9.76,4.38,9.76,9.76s-4.38,9.76-9.76,9.76S2.76,17.9,2.76,12.52,7.14,2.76,12.52,2.76m0-1.44C6.34,1.32,1.32,6.34,1.32,12.52s5.02,11.2,11.2,11.2,11.2-5.02,11.2-11.2S18.71,1.32,12.52,1.32h0Z" style="fill: url(#uuid-64926c09-3055-4763-bbe9-0d8540a7a9cd);"/>
        </g>
        <g style="fill: none; mask: url(#uuid-b444eace-2d90-4f66-ad63-17e79423f3d6);">
          <path d="m12.52,2.74c5.38,0,9.76,4.38,9.76,9.76s-4.38,9.76-9.76,9.76S2.76,17.88,2.76,12.5,7.14,2.74,12.52,2.74m0-1.44C6.34,1.3,1.32,6.31,1.32,12.5s5.02,11.2,11.2,11.2,11.2-5.02,11.2-11.2S18.71,1.3,12.52,1.3h0Z" style="fill: url(#uuid-9015bb88-1f9f-4bcd-8e77-cc7e0deab8dd);"/>
        </g>
        <g style="fill: none; mask: url(#uuid-e86bf9c0-9c5f-4e60-b026-fc16294b508a);">
          <path d="m12.52,2.76c5.38,0,9.76,4.38,9.76,9.76s-4.38,9.76-9.76,9.76S2.76,17.9,2.76,12.52,7.14,2.76,12.52,2.76m0-1.44C6.34,1.32,1.32,6.34,1.32,12.52s5.02,11.2,11.2,11.2,11.2-5.02,11.2-11.2S18.71,1.32,12.52,1.32h0Z" style="fill: url(#uuid-6a29e7e1-f779-40a4-915a-cc49c2ede91b);"/>
        </g>
        <path d="m21.67,12.5c0,5.06-4.1,9.17-9.17,9.17S3.33,17.56,3.33,12.5,7.44,3.33,12.5,3.33c5.06,0,9.17,4.1,9.17,9.17Z" style="fill: url(#uuid-1fc4ec24-bcb5-48d2-bc1d-42d429746470);"/>
        <path d="m12.52,3.57c4.84,0,8.78,3.94,8.78,8.78s-3.94,8.78-8.78,8.78S3.74,17.19,3.74,12.35,7.68,3.57,12.52,3.57h0m0-1.03C7.1,2.54,2.71,6.93,2.71,12.35s4.39,9.81,9.81,9.81,9.81-4.39,9.81-9.81S17.94,2.54,12.52,2.54h0Z" style="fill: url(#uuid-60b9fc36-5995-4d6d-8992-8b6fdca10e4c);"/>
      </g>
      <path d="m10.77,13.5l-.87,2.64h-1.12l2.85-8.4h1.31l2.87,8.4h-1.16l-.9-2.64h-2.98Zm2.75-.85l-.82-2.42c-.19-.55-.31-1.05-.44-1.53h-.03c-.12.5-.26,1.01-.42,1.52l-.82,2.43h2.53Z" style="fill: #231815;"/>
    </g>
  </g>
</svg>