<?xml version="1.0" encoding="UTF-8"?>
<svg xmlns="http://www.w3.org/2000/svg" viewBox="0 0 40 38">
  <g style="fill: none; isolation: isolate;">
    <g id="uuid-571f82b5-bb0b-45da-ae80-d27e576e5dc8" data-name="레이어 2">
      <g id="uuid-80229e60-8a6a-43da-85dc-f97d38aacffb" data-name="icomer">
        <g id="uuid-213ea91a-5f74-4104-9707-527429c6fdc7" data-name="ats-1">
          <g>
            <rect width="40" height="38" style="fill: #999;"/>
            <rect x=".94" y=".9" width="38.11" height="36.21" style="fill: #e6e6e5; stroke: #7f8080; stroke-dasharray: 0 .85; stroke-miterlimit: 10; stroke-width: .28px;"/>
            <ellipse cx="32.83" cy="6.7" rx="2.69" ry="2.55" style="fill: #e2e0e0;"/>
            <polygon points="20.35 31.01 7.77 6.69 7.14 6.99 19.72 31.31 20.35 31.01" style="fill: #999;"/>
            <polygon points="19.61 31.01 32.19 6.69 32.83 6.99 20.24 31.31 19.61 31.01" style="fill: #999;"/>
            <g>
              <ellipse cx="7.3" cy="6.7" rx="2.69" ry="2.55" style="fill: #999;"/>
              <ellipse cx="7.3" cy="6.7" rx="2.37" ry="2.25" style="fill: #c6c0c0;"/>
            </g>
            <g>
              <ellipse cx="20" cy="31.53" rx="2.69" ry="2.55" style="fill: #e2e0e0;"/>
              <g>
                <ellipse cx="20" cy="31.53" rx="2.69" ry="2.55" style="fill: #999;"/>
                <ellipse cx="20" cy="31.53" rx="2.37" ry="2.25" style="fill: #c6c0c0;"/>
              </g>
            </g>
            <g>
              <ellipse cx="32.83" cy="6.7" rx="2.69" ry="2.55" style="fill: #999;"/>
              <ellipse cx="32.83" cy="6.7" rx="2.37" ry="2.25" style="fill: #c6c0c0;"/>
            </g>
          </g>
          <g style="fill: none; mix-blend-mode: color; opacity: .8;">
            <g>
              <rect width="40" height="38" style="fill: #e6e243;"/>
              <rect x=".94" y=".9" width="38.11" height="36.21" style="fill: #e6e243; stroke: #e6e243; stroke-dasharray: 0 .85; stroke-miterlimit: 10; stroke-width: .28px;"/>
              <ellipse cx="32.83" cy="6.7" rx="2.69" ry="2.55" style="fill: #e6e243;"/>
              <polygon points="20.35 31.01 7.77 6.69 7.14 6.99 19.72 31.31 20.35 31.01" style="fill: #e6e243;"/>
              <polygon points="19.61 31.01 32.19 6.69 32.83 6.99 20.24 31.31 19.61 31.01" style="fill: #e6e243;"/>
              <g>
                <ellipse cx="7.3" cy="6.7" rx="2.69" ry="2.55" style="fill: #e6e243;"/>
                <ellipse cx="7.3" cy="6.7" rx="2.37" ry="2.25" style="fill: #e6e243;"/>
              </g>
              <g>
                <ellipse cx="20" cy="31.53" rx="2.69" ry="2.55" style="fill: #e6e243;"/>
                <g>
                  <ellipse cx="20" cy="31.53" rx="2.69" ry="2.55" style="fill: #e6e243;"/>
                  <ellipse cx="20" cy="31.53" rx="2.37" ry="2.25" style="fill: #e6e243;"/>
                </g>
              </g>
              <g>
                <ellipse cx="32.83" cy="6.7" rx="2.69" ry="2.55" style="fill: #e6e243;"/>
                <ellipse cx="32.83" cy="6.7" rx="2.37" ry="2.25" style="fill: #e6e243;"/>
              </g>
            </g>
          </g>
        </g>
      </g>
    </g>
  </g>
</svg>