<?xml version="1.0" encoding="UTF-8"?>
<svg xmlns="http://www.w3.org/2000/svg" viewBox="0 0 70 35">
  <g id="uuid-bbce3d45-480e-42d5-a06f-8b237af2e58b" data-name="레이어 2">
    <g id="uuid-1c9b0147-aa98-4213-a672-756483105f27" data-name="icomer">
      <g id="uuid-ec4bb3e2-9455-4de7-89b7-f506ad7451fd" data-name="sv">
        <g>
          <rect x="12.88" y=".14" width="57.26" height="29.86" rx="1.64" ry="1.64" style="fill: #95a1a6; stroke: #6e6e6d; stroke-linejoin: round; stroke-width: .28px;"/>
          <path d="m68.7,1.91c-5.66.06-11.33.11-16.99.17-.14,0-.14.21,0,.21,5.66-.06,11.33-.11,16.99-.17.14,0,.14-.21,0-.21Z" style="fill: #8a8c90;"/>
          <path d="m49.57,2.03c-9.1.04-18.21.07-27.31.11-.22,0-.23.21,0,.21,9.1-.04,18.21-.07,27.31-.11.22,0,.23-.21,0-.21Z" style="fill: #8a8c90;"/>
          <path d="m54.69.43c-11.31.02-22.61.04-33.92.06-.28,0-.28.21,0,.21,11.31-.02,22.61-.04,33.92-.06.28,0,.28-.21,0-.21Z" style="fill: #fff;"/>
          <path d="m22.34,2.71c-.14,0-.14.21,0,.21s.14-.21,0-.21Z" style="fill: #8a8c90;"/>
          <path d="m33.62,2.6c-.14,0-.14.21,0,.21s.14-.21,0-.21Z" style="fill: #8a8c90;"/>
          <path d="m46.87,2.63c-.14,0-.14.21,0,.21s.14-.21,0-.21Z" style="fill: #8a8c90;"/>
          <path d="m49.53,2.68c-.14,0-.14.21,0,.21s.14-.21,0-.21Z" style="fill: #8a8c90;"/>
          <path d="m61.75,2.66c-.14,0-.14.21,0,.21s.14-.21,0-.21Z" style="fill: #8a8c90;"/>
          <path d="m68.46,2.73c-.14,0-.14.21,0,.21s.14-.21,0-.21Z" style="fill: #8a8c90;"/>
          <path d="m23.19,26.64c-.14,0-.14.21,0,.21s.14-.21,0-.21Z" style="fill: #8a8c90;"/>
          <path d="m68.39,28.74c-6.18.1-12.35.15-18.53.17-6.18.02-12.35,0-18.53-.07-3.47-.03-6.95-.08-10.42-.14-.14,0-.14.21,0,.21,6.18.11,12.35.17,18.53.2,6.18.03,12.35.01,18.53-.04,3.47-.03,6.95-.07,10.42-.12.14,0,.14-.21,0-.21Z" style="fill: #8a8c90;"/>
        </g>
        <g>
          <rect x=".14" y=".14" width="19.64" height="29.86" rx="1.64" ry="1.64" style="fill: #797e7d; stroke: #6e6e6d; stroke-linecap: round; stroke-linejoin: round; stroke-width: .28px;"/>
          <path d="m18.83,2.31c-5.96-.04-11.92-.07-17.89-.11-.14,0-.14.21,0,.21,5.96.04,11.92.07,17.89.11.14,0,.14-.21,0-.21Z" style="fill: #8a8c90;"/>
          <path d="m1.39,2.81c-.14,0-.14.21,0,.21s.14-.21,0-.21Z" style="fill: #8a8c90;"/>
          <path d="m6.01,2.83c-.14,0-.14.21,0,.21s.14-.21,0-.21Z" style="fill: #8a8c90;"/>
          <path d="m11.68,2.85c-.14,0-.14.21,0,.21s.14-.21,0-.21Z" style="fill: #8a8c90;"/>
          <path d="m8.58,3.87c0-.14-.61-.14-.61,0,.02,2.99.04,5.98.06,8.97,0,.14.61.14.61,0-.02-2.99-.04-5.98-.06-8.97Z" style="fill: #8a8c90;"/>
          <path d="m10.75,3.87c0-.14-.22-.14-.22,0,0,2.99.01,5.98.02,8.97,0,.14.22.14.22,0,0-2.99-.01-5.98-.02-8.97Z" style="fill: #8a8c90;"/>
          <path d="m11.64.53c-2.07-.03-4.15-.06-6.22-.08-1.01-.01-2.02-.02-3.02.05-.62.04-1.5.11-1.61.85-.02.13.19.19.21.06.08-.51.61-.63,1.06-.67.44-.04.88-.06,1.32-.07.92-.02,1.83,0,2.75,0,1.84.02,3.67.05,5.51.07.14,0,.14-.21,0-.21Z" style="fill: #fff;"/>
          <path d="m18.65.62c-.47-.21-1.1-.11-1.6-.1-1.4.02-2.79.05-4.19.07-.14,0-.14.21,0,.21,1.11-.02,2.21-.04,3.32-.06.53,0,1.06-.02,1.59-.03.62,0,1.27.16,1.29.88,0,.14.22.14.22,0-.01-.41-.23-.8-.63-.98Z" style="fill: #fff;"/>
          <path d="m1.03,8.14c-.04-1.54-.08-3.08-.13-4.61,0-.14-.22-.14-.22,0,.17,5.45.26,10.91.28,16.36,0,1.54,0,3.08,0,4.62,0,.14.22.14.22,0,.03-5.46-.02-10.91-.14-16.36Z" style="fill: #fff;"/>
          <path d="m2.47,29.35c-.35.03-.78.02-1.03-.25-.29-.3-.25-.86-.28-1.25-.05-.83-.04-1.66.02-2.49,0-.14-.21-.13-.22,0-.08,1.07-.11,2.19.05,3.25.11.76.73,1.01,1.46.94.14-.01.14-.22,0-.21Z" style="fill: #fff;"/>
        </g>
        <g>
          <rect x="4.94" y="30.01" width="47.15" height="5.14" style="fill: #0b2d32;"/>
          <rect x="4.94" y="30.01" width=".81" height="4.31" style="fill: #123c45;"/>
          <rect x="3.5" y="34.31" width="2.25" height=".83" style="fill: #123c45;"/>
          <rect x="18.68" y="34.31" width="48.1" height=".83" style="fill: #184d4f;"/>
          <rect x="18.68" y="30.01" width="47.15" height="4.31" style="fill: #0b2d32;"/>
          <g>
            <g>
              <polygon points="25.92 34.31 25.1 34.31 25.1 30.01 27.82 30.01 27.82 32.51 25.92 34.31" style="fill: #184d4f;"/>
              <polygon points="25.42 34.31 24.6 34.31 24.6 30.01 27.32 30.01 27.32 32.51 25.42 34.31" style="fill: #123c45;"/>
            </g>
            <g>
              <polygon points="37.96 34.31 37.14 34.31 37.14 30.01 39.86 30.01 39.86 32.51 37.96 34.31" style="fill: #184d4f;"/>
              <polygon points="37.46 34.31 36.64 34.31 36.64 30.01 39.36 30.01 39.36 32.51 37.46 34.31" style="fill: #123c45;"/>
            </g>
            <g>
              <polygon points="50 34.31 49.18 34.31 49.18 30.01 51.9 30.01 51.9 32.51 50 34.31" style="fill: #184d4f;"/>
              <polygon points="49.5 34.31 48.68 34.31 48.68 30.01 51.4 30.01 51.4 32.51 49.5 34.31" style="fill: #123c45;"/>
            </g>
            <g>
              <polygon points="62.04 34.31 61.22 34.31 61.22 30.01 63.94 30.01 63.94 32.51 62.04 34.31" style="fill: #184d4f;"/>
              <polygon points="61.54 34.31 60.72 34.31 60.72 30.01 63.44 30.01 63.44 32.51 61.54 34.31" style="fill: #123c45;"/>
            </g>
          </g>
          <rect x="18.68" y="30.01" width=".81" height="4.31" style="fill: #123c45;"/>
          <rect x="18.68" y="34.31" width="2.25" height=".83" style="fill: #123c45;"/>
        </g>
        <g>
          <rect x="35.89" y="6.85" width="9.12" height="7.29" rx="2.05" ry="2.05" style="fill: #a8a8cf;"/>
          <rect x="35.89" y="6.85" width="9.12" height="7.29" rx="2.05" ry="2.05" style="fill: #afaeb1;"/>
          <rect x="36.11" y="7.51" width="8.08" height="6.46" rx="1.82" ry="1.82" style="fill: #8a8c90;"/>
          <rect x="36.95" y="8.45" width="6.4" height="3.95" rx="1.11" ry="1.11" style="fill: #d3d3d3;"/>
          <rect x="37.98" y="9.03" width="4.34" height="1.95" rx=".55" ry=".55" style="fill: #8a8c90;"/>
          <rect x="38.43" y="9.46" width="3.44" height="1.08" rx=".3" ry=".3" style="fill: #323535;"/>
          <path d="m38.49,11.53c-.26,0-.52,0-.77-.01-.14,0-.14.21,0,.21.26,0,.52.01.77.01.14,0,.14-.21,0-.21Z" style="fill: #8a8c90;"/>
          <path d="m39.97,11.53c-.3,0-.6,0-.9-.03-.14,0-.14.2,0,.21.3.02.6.03.9.03.14,0,.14-.21,0-.21Z" style="fill: #8a8c90;"/>
          <path d="m40.99,11.53h-.42c-.14.02-.14.23,0,.22h.42c.14-.02.14-.23,0-.22Z" style="fill: #8a8c90;"/>
          <path d="m41.98,11.53c-.16,0-.33,0-.49.01-.14,0-.14.21,0,.21.16,0,.33,0,.49-.01.14,0,.14-.21,0-.21Z" style="fill: #8a8c90;"/>
          <path d="m42.89,11.52c-.13,0-.26,0-.39,0-.14,0-.14.21,0,.21.13,0,.26,0,.39,0,.14,0,.14-.2,0-.21Z" style="fill: #8a8c90;"/>
          <path d="m45,8.23c0-.55-.38-1.02-.9-1.16-2.04,1.02-4.54,2.16-4.61,1.63-.06-.5-1.94.59-3.61,1.67v2.73c0,.26.09.5.23.7,2.96-1.94,2.63-.81,3.33-.7.47.08,3.32-1.5,5.56-2.78v-2.09Z" style="fill: #fff; mix-blend-mode: soft-light; opacity: .5;"/>
          <path d="m43.75,14.31h-6.62c-.79,0-1.43-.62-1.43-1.39v-4.86c0-.77.64-1.39,1.43-1.39h6.62c.79,0,1.43.62,1.43,1.39v4.86c0,.77-.64,1.39-1.43,1.39Zm-6.62-7.29c-.59,0-1.07.47-1.07,1.04v4.86c0,.57.48,1.04,1.07,1.04h6.62c.59,0,1.07-.47,1.07-1.04v-4.86c0-.57-.48-1.04-1.07-1.04h-6.62Z" style="fill: #323535;"/>
        </g>
        <g>
          <path d="m45.85,27.96h-10.81c-.75,0-1.36-.59-1.36-1.32V6.03c0-.73.61-1.32,1.36-1.32h10.81c.75,0,1.36.59,1.36,1.32v20.61c0,.73-.61,1.32-1.36,1.32Zm-10.81-23.11c-.67,0-1.21.53-1.21,1.18v20.61c0,.65.54,1.18,1.21,1.18h10.81c.67,0,1.21-.53,1.21-1.18V6.03c0-.65-.54-1.18-1.21-1.18h-10.81Z" style="fill: #797e7d;"/>
          <g>
            <rect x="33.12" y="8.55" width="1.26" height="1.69" rx=".34" ry=".34" style="fill: #323535;"/>
            <rect x="33.12" y="22.44" width="1.26" height="1.69" rx=".34" ry=".34" style="fill: #323535;"/>
          </g>
          <path d="m33.42,8.75c-.14,0-.14.21,0,.21s.14-.21,0-.21Z" style="fill: #8a8c90;"/>
          <path d="m33.41,9.75c-.14,0-.14.21,0,.21s.14-.21,0-.21Z" style="fill: #8a8c90;"/>
          <path d="m34.07,8.74c-.14,0-.14.21,0,.21s.14-.21,0-.21Z" style="fill: #8a8c90;"/>
          <path d="m34.08,9.77c-.14,0-.14.21,0,.21s.14-.21,0-.21Z" style="fill: #8a8c90;"/>
          <path d="m33.42,22.61c-.14,0-.14.21,0,.21s.14-.21,0-.21Z" style="fill: #8a8c90;"/>
          <path d="m33.43,23.71c-.14,0-.14.21,0,.21s.14-.21,0-.21Z" style="fill: #8a8c90;"/>
          <path d="m34.11,22.6c-.14,0-.14.21,0,.21s.14-.21,0-.21Z" style="fill: #8a8c90;"/>
          <path d="m34.11,23.7c-.14,0-.14.21,0,.21s.14-.21,0-.21Z" style="fill: #8a8c90;"/>
          <path d="m45.39,13.53c-.04.75-.74,1.05-1.42,1.07-.66.02-1.33,0-1.99,0-.14,0-.14.21,0,.21.47,0,.94,0,1.41,0,.4,0,.81.02,1.2-.09.57-.16.99-.62,1.02-1.2,0-.14-.21-.14-.22,0Z" style="fill: #6e6e6d;"/>
          <path d="m41.06,14.64l-4.15-.03c-.14,0-.14.21,0,.21l4.15.03c.14,0,.14-.21,0-.21Z" style="fill: #6e6e6d;"/>
          <g>
            <path d="m46.15,16.33h.91v2.11h-.91c-.33,0-.59-.27-.59-.59v-.92c0-.33.27-.59.59-.59Z" style="fill: #323535;"/>
            <path d="m46.74,16.76h.32v1.26h-.32c-.2,0-.35-.16-.35-.35v-.55c0-.2.16-.35.35-.35Z" style="fill: #8a8c90;"/>
          </g>
          <path d="m40.79,5.24c-1.42-.03-2.84-.07-4.26-.08-.57,0-1.33-.05-1.86.19-.36.16-.53.64-.56.99,0,.14.21.13.22,0,.02-.32.19-.68.5-.83.26-.12.6-.11.88-.13.55-.04,1.1-.01,1.65,0,1.14.02,2.28.04,3.42.07.14,0,.14-.21,0-.21Z" style="fill: #fff;"/>
          <path d="m45.12,5.21c-1.06,0-2.11.03-3.16.06-.14,0-.14.22,0,.21,1.05-.04,2.11-.06,3.16-.06.14,0,.14-.21,0-.21Z" style="fill: #fff;"/>
          <path d="m34.27,10.98c.08,2.87.07,5.75-.04,8.62,0,.14.21.13.22,0,.11-2.87.13-5.75.04-8.62,0-.14-.22-.13-.22,0Z" style="fill: #fff;"/>
          <path d="m46.32,18.76c-.29.01-.84.09-1.01-.19-.16-.27-.05-.63-.08-.92-.01-.13-.23-.14-.22,0,.03.37-.1.79.16,1.11.25.31.79.23,1.14.22.14,0,.14-.22,0-.21Z" style="fill: #6e6e6d;"/>
          <path d="m46.72,18.76c-.14,0-.14.21,0,.21s.14-.21,0-.21Z" style="fill: #6e6e6d;"/>
        </g>
        <g>
          <path d="m61.27,27.96h-10.81c-.75,0-1.36-.59-1.36-1.32V6.03c0-.73.61-1.32,1.36-1.32h10.81c.75,0,1.36.59,1.36,1.32v20.61c0,.73-.61,1.32-1.36,1.32Zm-10.81-23.11c-.67,0-1.21.53-1.21,1.18v20.61c0,.65.54,1.18,1.21,1.18h10.81c.67,0,1.21-.53,1.21-1.18V6.03c0-.65-.54-1.18-1.21-1.18h-10.81Z" style="fill: #797e7d;"/>
          <g>
            <rect x="48.62" y="8.55" width="1.26" height="1.69" rx=".34" ry=".34" style="fill: #323535;"/>
            <rect x="48.62" y="22.44" width="1.26" height="1.69" rx=".34" ry=".34" style="fill: #323535;"/>
          </g>
          <path d="m48.93,22.63c-.14,0-.14.21,0,.21s.14-.21,0-.21Z" style="fill: #8a8c90;"/>
          <path d="m48.91,23.65c-.14,0-.14.21,0,.21s.14-.21,0-.21Z" style="fill: #8a8c90;"/>
          <path d="m49.55,22.64c-.14,0-.14.21,0,.21s.14-.21,0-.21Z" style="fill: #8a8c90;"/>
          <path d="m49.57,23.64c-.14,0-.14.21,0,.21s.14-.21,0-.21Z" style="fill: #8a8c90;"/>
          <path d="m48.92,8.74c-.14,0-.14.21,0,.21s.14-.21,0-.21Z" style="fill: #8a8c90;"/>
          <path d="m48.96,9.79c-.14,0-.14.21,0,.21s.14-.21,0-.21Z" style="fill: #8a8c90;"/>
          <path d="m49.54,8.75c-.14,0-.14.21,0,.21s.14-.21,0-.21Z" style="fill: #8a8c90;"/>
          <path d="m49.54,9.78c-.14,0-.14.21,0,.21s.14-.21,0-.21Z" style="fill: #8a8c90;"/>
          <g>
            <path d="m61.58,16.33h.91v2.11h-.91c-.33,0-.59-.27-.59-.59v-.92c0-.33.27-.59.59-.59Z" style="fill: #323535;"/>
            <path d="m62.16,16.76h.32v1.26h-.32c-.2,0-.35-.16-.35-.35v-.55c0-.2.16-.35.35-.35Z" style="fill: #8a8c90;"/>
          </g>
          <path d="m59.7,5.35c-1.41.02-2.83.04-4.24.06-1.39.02-2.77.03-4.16.06-.45.01-.88.09-1.15.48-.3.45-.23,1.01-.16,1.51.02.13.23.08.21-.06-.08-.53-.16-1.28.4-1.6.43-.24,1.13-.14,1.61-.14,1.08-.02,2.16-.03,3.24-.05,1.05-.02,2.11-.03,3.16-.05l1.58-.02c.43,0,1.7-.15,1.52.62-.03.13.18.19.21.06.27-1.13-1.63-.89-2.24-.88Z" style="fill: #fff;"/>
          <path d="m62.24,18.77c-.21,0-.42,0-.63,0-.18,0-.47.04-.62-.07-.34-.24-.24-.98-.26-1.35,0-.13-.23-.14-.22,0,.02.32.03.64.06.96.02.19.06.38.22.51.35.3,1.04.16,1.46.16.14,0,.14-.21,0-.21Z" style="fill: #6e6e6d;"/>
        </g>
        <g>
          <rect x="23.46" y="6.06" width="6.84" height="20.69" rx="1.82" ry="1.82" style="fill: #8a8c90;"/>
          <rect x="23.46" y="7.27" width="6.12" height="18.97" rx="1.63" ry="1.63" style="fill: #323535;"/>
          <g>
            <path d="m23.46,7.05h5.97c.23,0,.78,1.28.5,1.28h-6.47v-1.28Z" style="fill: #afaeb1;"/>
            <path d="m23.46,8.98h5.97c.23,0,.78,1.28.5,1.28h-6.47v-1.28Z" style="fill: #afaeb1;"/>
            <path d="m23.46,10.92h5.97c.23,0,.78,1.28.5,1.28h-6.47v-1.28Z" style="fill: #afaeb1;"/>
            <path d="m23.46,12.86h5.97c.23,0,.78,1.28.5,1.28h-6.47v-1.28Z" style="fill: #afaeb1;"/>
            <path d="m23.46,14.8h5.97c.23,0,.78,1.28.5,1.28h-6.47v-1.28Z" style="fill: #afaeb1;"/>
            <path d="m23.46,16.74h5.97c.23,0,.78,1.28.5,1.28h-6.47v-1.28Z" style="fill: #afaeb1;"/>
            <path d="m23.46,18.67h5.97c.23,0,.78,1.28.5,1.28h-6.47v-1.28Z" style="fill: #afaeb1;"/>
            <path d="m23.46,20.61h5.97c.23,0,.78,1.28.5,1.28h-6.47v-1.28Z" style="fill: #afaeb1;"/>
            <path d="m23.46,22.55h5.97c.23,0,.78,1.28.5,1.28h-6.47v-1.28Z" style="fill: #afaeb1;"/>
            <path d="m23.46,24.49h5.97c.23,0,.78,1.28.5,1.28h-6.47v-1.28Z" style="fill: #afaeb1;"/>
          </g>
          <path d="m30.75,25.8c0,.53-.04,1.18-.66,1.36-.45.13-.99.09-1.46.07-.14,0-.14.2,0,.21.55.02,1.36.1,1.84-.22.47-.32.5-.91.5-1.42,0-.14-.22-.14-.22,0Z" style="fill: #6e6e6d;"/>
          <path d="m27.97,27.25c-1.26,0-2.53,0-3.79-.01-.14,0-.14.21,0,.21,1.26,0,2.53,0,3.79.01.14,0,.14-.21,0-.21Z" style="fill: #6e6e6d;"/>
          <path d="m27.45,5.55c-.94-.03-1.88-.02-2.82.02-.67.03-1.27.1-1.61.74-.06.12.12.23.19.11.39-.74,1.27-.63,2-.65.75-.02,1.49-.02,2.24,0,.14,0,.14-.21,0-.21Z" style="fill: #fff;"/>
          <path d="m29.75,5.56c-.53,0-1.06,0-1.59-.01-.14,0-.14.21,0,.21.53,0,1.06,0,1.59.01.14,0,.14-.21,0-.21Z" style="fill: #fff;"/>
          <path d="m30.49,5.92c-.14,0-.14.21,0,.21s.14-.21,0-.21Z" style="fill: #8a8c90;"/>
        </g>
        <path d="m18.3,2.93c-.14,0-.14.21,0,.21s.14-.21,0-.21Z" style="fill: #8a8c90;"/>
        <g>
          <g>
            <rect x="3.38" y="14.81" width="11.71" height="12.95" rx="3.12" ry="3.12" transform="translate(18.47 42.57) rotate(-180)" style="fill: #8a8c90;"/>
            <rect x="4.61" y="15.57" width="10.48" height="11.88" rx="2.79" ry="2.79" transform="translate(19.7 43.01) rotate(180)" style="fill: #323535;"/>
            <path d="m5.92,15.81h-1.06c-.39,0-1.33,1.28-.85,1.28h.74c.2-.56.63-1.02,1.18-1.28Z" style="fill: #afaeb1;"/>
            <path d="m4,19.02h.6v-1.16c-.43.31-.99,1.16-.6,1.16Z" style="fill: #afaeb1;"/>
            <path d="m15.09,17.75h0s0,.03,0,.05v-.05Z" style="fill: #cecde7;"/>
            <path d="m4,20.96h.6v-1.16c-.43.31-.99,1.16-.6,1.16Z" style="fill: #afaeb1;"/>
            <path d="m4,22.9h.6v-1.16c-.43.31-.99,1.16-.6,1.16Z" style="fill: #afaeb1;"/>
            <path d="m4,24.84h.6v-1.16c-.43.31-.99,1.16-.6,1.16Z" style="fill: #afaeb1;"/>
            <path d="m4,26.78h1.28c-.33-.32-.56-.73-.64-1.19-.43.28-1.04,1.19-.64,1.19Z" style="fill: #afaeb1;"/>
            <path d="m4.61,23.68c.09-.07.18-.12.25-.12h10.23v-.66H4.61v.78Z" style="fill: #323535;"/>
            <path d="m6.97,27.44h5.76c.66,0,1.25-.26,1.68-.67H5.29c.43.41,1.02.67,1.68.67Z" style="fill: #323535;"/>
            <path d="m4.74,17.09c-.08.22-.13.46-.13.71v.07c.09-.07.18-.12.25-.12h10.23c0-.23-.05-.45-.13-.66H4.74Z" style="fill: #323535;"/>
            <path d="m12.73,15.57h-5.76c-.38,0-.73.09-1.05.24h7.86c-.32-.15-.67-.24-1.05-.24Z" style="fill: #323535;"/>
            <path d="m4.61,19.8c.09-.07.18-.12.25-.12h10.23v-.66H4.61v.78Z" style="fill: #323535;"/>
            <path d="m4.61,21.74c.09-.07.18-.12.25-.12h10.23v-.66H4.61v.78Z" style="fill: #323535;"/>
            <path d="m13.78,15.81h-7.86c-.55.26-.98.72-1.18,1.28h10.21c-.2-.56-.63-1.02-1.18-1.28Z" style="fill: #afaeb1;"/>
            <path d="m4.61,17.86v1.16h10.48v-1.23s0-.03,0-.05H4.86c-.07,0-.16.05-.25.12Z" style="fill: #afaeb1;"/>
            <path d="m4.61,19.8v1.16h10.48v-1.28H4.86c-.07,0-.16.05-.25.12Z" style="fill: #afaeb1;"/>
            <path d="m4.61,21.74v1.16h10.48v-1.28H4.86c-.07,0-.16.05-.25.12Z" style="fill: #afaeb1;"/>
            <path d="m4.61,23.68v1.16h10.48v-1.28H4.86c-.07,0-.16.05-.25.12Z" style="fill: #afaeb1;"/>
            <path d="m4.65,25.59c.08.46.31.87.64,1.19h9.12c.35-.34.58-.78.65-1.28H4.86c-.06,0-.13.04-.21.09Z" style="fill: #afaeb1;"/>
          </g>
          <path d="m15.8,27.32c0-.14-.22-.14-.22,0,.02.35.04.72-.08,1.06-.16.46-.55.68-1.02.76-.74.13-1.55.06-2.3.06-1.57,0-3.14,0-4.71,0-.14,0-.14.21,0,.21,1.86,0,3.71,0,5.57,0,.7,0,1.54.08,2.16-.3.62-.38.63-1.15.6-1.79Z" style="fill: #8a8c90;"/>
          <path d="m6.68,29.14c-.87.04-1.74.04-2.61,0-.14,0-.14.2,0,.21.87.05,1.74.05,2.61,0,.14,0,.14-.22,0-.21Z" style="fill: #8a8c90;"/>
          <path d="m10.7,16.6c-2.12-.03-4.24-.02-6.36.03-.14,0-.14.21,0,.21,2.12-.05,4.24-.06,6.36-.03.14,0,.14-.21,0-.21Z" style="fill: #fff;"/>
          <path d="m13.52,16.59h-2.17c-.14,0-.14.21,0,.21h2.17c.14,0,.14-.21,0-.21Z" style="fill: #fff;"/>
          <path d="m12.22,18.49c-2.66-.02-5.31.02-7.97.1-.14,0-.14.22,0,.21,2.66-.08,5.31-.12,7.97-.1.14,0,.14-.21,0-.21Z" style="fill: #fff;"/>
          <path d="m9.5,20.42c-1.74.03-3.49.06-5.23.08-.14,0-.14.21,0,.21,1.74-.03,3.49-.06,5.23-.08.14,0,.14-.21,0-.21Z" style="fill: #fff;"/>
          <path d="m12.84,22.26c-2.74.03-5.49.07-8.23.1-.14,0-.14.21,0,.21,2.74-.03,5.49-.07,8.23-.1.14,0,.14-.21,0-.21Z" style="fill: #fff;"/>
          <path d="m14.28,22.25h-.69c-.14,0-.14.21,0,.21h.69c.14,0,.14-.21,0-.21Z" style="fill: #fff;"/>
          <path d="m9.5,24.36c-1.7.02-3.4.02-5.11,0-.14,0-.14.21,0,.21,1.7.03,3.4.03,5.11,0,.14,0,.14-.21,0-.21Z" style="fill: #fff;"/>
          <path d="m13.57,14.07c-2.48,0-4.96-.03-7.44-.08-.14,0-.14.21,0,.21,2.48.05,4.96.08,7.44.08.14,0,.14-.21,0-.21Z" style="fill: #fff;"/>
        </g>
      </g>
    </g>
  </g>
</svg>