<?xml version="1.0" encoding="UTF-8"?>
<svg xmlns="http://www.w3.org/2000/svg" viewBox="0 0 60 50">
  <g style="fill: none; isolation: isolate;">
    <g id="uuid-206ee68c-7b8e-4d89-8657-33cf56dc04b2" data-name="레이어 2">
      <g id="uuid-f58afca8-c4b6-4276-83ff-87af0663d450" data-name="icomer">
        <g id="uuid-f8c979b9-2256-487c-bb1e-85485da6fce0" data-name="lv-3">
          <g>
            <rect x=".81" y="4.45" width="58.38" height="43.09" style="fill: #6d6b69;"/>
            <rect x=".81" width="58.38" height="2.91" style="fill: #969492;"/>
            <rect x=".81" y="47.55" width="58.38" height="2.45" style="fill: #999895;"/>
            <g>
              <rect x="1.59" y="4.88" width="28.03" height="42.24" style="fill: #c7c5c1;"/>
              <rect x="30.14" y="4.88" width="28.27" height="42.24" style="fill: #c7c5c1;"/>
            </g>
            <g>
              <polygon points="14.73 39.29 14.22 38.09 12.46 41.75 15.33 41.75 13.89 39.29 14.73 39.29" style="fill: #dfb94c;"/>
              <polygon points="16.9 39.35 17.44 39.41 16.35 41.31 16.65 40.07 16.35 40.07 16.35 38.27 17.04 38.27 15.58 35.24 14.52 37.45 15.55 37.45 15.55 40.25 15.05 40.25 15.4 41.75 18.7 41.75 17.13 38.46 16.9 39.35" style="fill: #dfb94c;"/>
              <polygon points="15.55 40.25 15.55 37.45 14.52 37.45 14.22 38.09 14.73 39.29 13.89 39.29 15.33 41.75 15.4 41.75 15.05 40.25 15.55 40.25" style="fill: #292d24;"/>
              <path d="m18.96,41.41l-2.98-6.2c-.18-.37-.63-.37-.81,0l-2.98,6.2c-.18.37.04.84.4.84h5.96c.36,0,.58-.47.4-.84Zm-3.56.33h-2.94l1.76-3.66.3-.63,1.06-2.21,1.45,3.03.09.19,1.58,3.28h-3.3Z" style="fill: #292d24;"/>
              <polygon points="16.35 40.07 16.65 40.07 16.35 41.31 17.44 39.41 16.9 39.35 17.13 38.46 17.04 38.27 16.35 38.27 16.35 40.07" style="fill: #292d24;"/>
            </g>
            <g>
              <rect x="32.01" y="22.27" width="1.3" height="7.45" style="fill: #040000;"/>
              <g>
                <rect x="32.06" y="22.34" width="1.2" height="7.34" style="fill: #322e31;"/>
                <g>
                  <path d="m32.66,23.15c-.23,0-.42.21-.42.47v4.78c0,.26.19.47.42.47s.42-.21.42-.47v-4.78c0-.26-.19-.47-.42-.47Z" style="fill: #040000;"/>
                  <g>
                    <path d="m33.04,23.66c0-.25-.17-.46-.38-.46s-.38.21-.38.46v3.6h.76v-3.6Z" style="fill: #222021;"/>
                    <path d="m32.66,28.82c.21,0,.38-.21.38-.46v-1.11h-.76v1.11c0,.25.17.46.38.46Z" style="fill: #cfcbc7;"/>
                  </g>
                </g>
              </g>
            </g>
            <rect x="1.32" y="2.88" width="2.08" height="1.57" style="fill: #c7c5c1;"/>
            <rect x="56.6" y="2.88" width="2.08" height="1.57" style="fill: #c7c5c1;"/>
            <polygon points="59.19 11.66 59.19 19.42 60 19.21 60 12.21 59.19 11.66" style="fill: #999895;"/>
            <polygon points=".81 11.66 .81 19.42 0 19.21 0 12.21 .81 11.66" style="fill: #999895;"/>
            <rect x=".81" y="47.55" width="58.38" height=".36" style="fill: #5f5e5d;"/>
            <rect x="3.4" y="2.88" width="53.2" height="1.57" style="fill: #5f5e5d;"/>
          </g>
          <g style="fill: none; mix-blend-mode: multiply;">
            <g>
              <rect x=".81" y="4.45" width="58.38" height="43.09" style="fill: #e71f19;"/>
              <rect x=".81" width="58.38" height="2.91" style="fill: #e71f19;"/>
              <rect x=".81" y="47.55" width="58.38" height="2.45" style="fill: #e71f19;"/>
              <g>
                <rect x="1.59" y="4.88" width="28.03" height="42.24" style="fill: #e71f19;"/>
                <rect x="30.14" y="4.88" width="28.27" height="42.24" style="fill: #e71f19;"/>
              </g>
              <g>
                <polygon points="14.73 39.29 14.22 38.09 12.46 41.75 15.33 41.75 13.89 39.29 14.73 39.29" style="fill: #e71f19;"/>
                <polygon points="16.9 39.35 17.44 39.41 16.35 41.31 16.65 40.07 16.35 40.07 16.35 38.27 17.04 38.27 15.58 35.24 14.52 37.45 15.55 37.45 15.55 40.25 15.05 40.25 15.4 41.75 18.7 41.75 17.13 38.46 16.9 39.35" style="fill: #e71f19;"/>
                <polygon points="15.55 40.25 15.55 37.45 14.52 37.45 14.22 38.09 14.73 39.29 13.89 39.29 15.33 41.75 15.4 41.75 15.05 40.25 15.55 40.25" style="fill: #e71f19;"/>
                <path d="m18.96,41.41l-2.98-6.2c-.18-.37-.63-.37-.81,0l-2.98,6.2c-.18.37.04.84.4.84h5.96c.36,0,.58-.47.4-.84Zm-3.56.33h-2.94l1.76-3.66.3-.63,1.06-2.21,1.45,3.03.09.19,1.58,3.28h-3.3Z" style="fill: #e71f19;"/>
                <polygon points="16.35 40.07 16.65 40.07 16.35 41.31 17.44 39.41 16.9 39.35 17.13 38.46 17.04 38.27 16.35 38.27 16.35 40.07" style="fill: #e71f19;"/>
              </g>
              <g>
                <rect x="32.01" y="22.27" width="1.3" height="7.45" style="fill: #e71f19;"/>
                <g>
                  <rect x="32.06" y="22.34" width="1.2" height="7.34" style="fill: #e71f19;"/>
                  <g>
                    <path d="m32.66,23.15c-.23,0-.42.21-.42.47v4.78c0,.26.19.47.42.47s.42-.21.42-.47v-4.78c0-.26-.19-.47-.42-.47Z" style="fill: #e71f19;"/>
                    <g>
                      <path d="m33.04,23.66c0-.25-.17-.46-.38-.46s-.38.21-.38.46v3.6h.76v-3.6Z" style="fill: #e71f19;"/>
                      <path d="m32.66,28.82c.21,0,.38-.21.38-.46v-1.11h-.76v1.11c0,.25.17.46.38.46Z" style="fill: #e71f19;"/>
                    </g>
                  </g>
                </g>
              </g>
              <rect x="1.32" y="2.88" width="2.08" height="1.57" style="fill: #e71f19;"/>
              <rect x="56.6" y="2.88" width="2.08" height="1.57" style="fill: #e71f19;"/>
              <polygon points="59.19 11.66 59.19 19.42 60 19.21 60 12.21 59.19 11.66" style="fill: #e71f19;"/>
              <polygon points=".81 11.66 .81 19.42 0 19.21 0 12.21 .81 11.66" style="fill: #e71f19;"/>
              <rect x=".81" y="47.55" width="58.38" height=".36" style="fill: #e71f19;"/>
              <rect x="3.4" y="2.88" width="53.2" height="1.57" style="fill: #e71f19;"/>
            </g>
          </g>
        </g>
      </g>
    </g>
  </g>
</svg>