<?xml version="1.0" encoding="UTF-8"?>
<svg id="uuid-a86b6adc-d74a-4be2-bf4b-85314d4c2e80" data-name="레이어 2" xmlns="http://www.w3.org/2000/svg" xmlns:xlink="http://www.w3.org/1999/xlink" viewBox="0 0 25 25">
  <defs>
    <linearGradient id="uuid-e0dd0618-3e7e-40ca-b1eb-9430245af9f7" x1="4.49" y1="2.91" x2="20.51" y2="22.09" gradientUnits="userSpaceOnUse">
      <stop offset="0" stop-color="#999"/>
      <stop offset=".23" stop-color="#b7b7b7"/>
      <stop offset=".57" stop-color="#dedede"/>
      <stop offset=".83" stop-color="#f6f6f6"/>
      <stop offset="1" stop-color="#fff"/>
    </linearGradient>
    <radialGradient id="uuid-cd833461-d431-4fd7-bce3-5dc4d0e5a268" cx="-17.09" cy="211.01" fx="-17.09" fy="211.01" r="5.6" gradientTransform="translate(46.73 -409.77) scale(2)" gradientUnits="userSpaceOnUse">
      <stop offset=".81" stop-color="#545454"/>
      <stop offset=".84" stop-color="#565656"/>
      <stop offset=".86" stop-color="#5e5e5e"/>
      <stop offset=".87" stop-color="#6c6c6c"/>
      <stop offset=".89" stop-color="#7f7f7f"/>
      <stop offset=".9" stop-color="#999998"/>
      <stop offset=".91" stop-color="#b8b8b7"/>
      <stop offset=".92" stop-color="#dcdcdc"/>
      <stop offset=".92" stop-color="#ededec"/>
      <stop offset=".93" stop-color="#e9e9e8"/>
      <stop offset=".95" stop-color="#dfdfde"/>
      <stop offset=".96" stop-color="#cdcdcc"/>
      <stop offset=".97" stop-color="#b4b4b3"/>
      <stop offset=".98" stop-color="#939393"/>
      <stop offset=".99" stop-color="#6c6c6c"/>
      <stop offset="1" stop-color="#545454"/>
    </radialGradient>
    <mask id="uuid-4b60b6f2-a0dc-42c3-b5ad-9d7aee0ebcfb" data-name="mask" x="-14.25" y="-5.83" width="44.51" height="41.35" maskUnits="userSpaceOnUse">
      <rect x="-14.25" y="-5.83" width="44.51" height="41.35" style="fill: #fff;"/>
    </mask>
    <radialGradient id="uuid-4990907c-26a3-4e8f-9e40-fd68b2d9c094" cx="-17.09" cy="211.01" fx="-17.09" fy="211.01" r="5.6" gradientTransform="translate(46.73 -409.77) scale(2)" gradientUnits="userSpaceOnUse">
      <stop offset=".81" stop-color="#75191b"/>
      <stop offset=".84" stop-color="#771b1a"/>
      <stop offset=".86" stop-color="#7e231a"/>
      <stop offset=".88" stop-color="#8b311a"/>
      <stop offset=".89" stop-color="#9d441a"/>
      <stop offset=".9" stop-color="#b55e1a"/>
      <stop offset=".91" stop-color="#d27c1a"/>
      <stop offset=".92" stop-color="#f4a11a"/>
      <stop offset=".92" stop-color="#f5a21a"/>
      <stop offset=".94" stop-color="#f29f1a"/>
      <stop offset=".96" stop-color="#ea971a"/>
      <stop offset=".97" stop-color="#dd891a"/>
      <stop offset=".98" stop-color="#ca741a"/>
      <stop offset=".98" stop-color="#b25a1a"/>
      <stop offset=".99" stop-color="#953b1a"/>
      <stop offset="1" stop-color="#75191b"/>
    </radialGradient>
    <mask id="uuid-01b559c9-6f91-46dc-99b4-44e3566aefd4" data-name="mask-1" x="-14.25" y="-5.83" width="44.51" height="41.35" maskUnits="userSpaceOnUse">
      <rect x="-14.25" y="-5.83" width="44.51" height="41.35" style="fill: #fff;"/>
    </mask>
    <radialGradient id="uuid-f4a27fa6-8474-4cbe-8755-be86f7ecc038" cx="-17.09" cy="211.01" fx="-17.09" fy="211.01" r="5.6" gradientTransform="translate(46.73 -409.77) scale(2)" gradientUnits="userSpaceOnUse">
      <stop offset=".81" stop-color="#472653"/>
      <stop offset=".83" stop-color="#4a2855"/>
      <stop offset=".85" stop-color="#56305e"/>
      <stop offset=".87" stop-color="#6a3d6c"/>
      <stop offset=".89" stop-color="#854f81"/>
      <stop offset=".91" stop-color="#a8679b"/>
      <stop offset=".92" stop-color="#c57ab0"/>
      <stop offset=".94" stop-color="#c278ae"/>
      <stop offset=".96" stop-color="#ba72a8"/>
      <stop offset=".97" stop-color="#ac699d"/>
      <stop offset=".98" stop-color="#975b8e"/>
      <stop offset=".99" stop-color="#7d4a7b"/>
      <stop offset=".99" stop-color="#5e3564"/>
      <stop offset="1" stop-color="#472653"/>
    </radialGradient>
    <mask id="uuid-ee4e74ba-6631-4ba1-9488-e2554573eece" data-name="mask-2" x="-14.25" y="-5.86" width="44.51" height="41.36" maskUnits="userSpaceOnUse">
      <rect x="-14.25" y="-5.86" width="44.51" height="41.35" style="fill: #fff;"/>
    </mask>
    <radialGradient id="uuid-d726d695-23e2-4bcc-a5d8-1382d81a32a3" cx="-17.09" cy="211" fx="-17.09" fy="211" r="5.6" gradientTransform="translate(46.73 -409.77) scale(2)" gradientUnits="userSpaceOnUse">
      <stop offset=".81" stop-color="#163f74"/>
      <stop offset=".84" stop-color="#174175"/>
      <stop offset=".86" stop-color="#1c497b"/>
      <stop offset=".88" stop-color="#255785"/>
      <stop offset=".89" stop-color="#316a94"/>
      <stop offset=".9" stop-color="#4284a6"/>
      <stop offset=".91" stop-color="#55a2bd"/>
      <stop offset=".92" stop-color="#6cc6d7"/>
      <stop offset=".94" stop-color="#6ac3d5"/>
      <stop offset=".96" stop-color="#65bbcf"/>
      <stop offset=".97" stop-color="#5cadc4"/>
      <stop offset=".98" stop-color="#4f98b5"/>
      <stop offset=".99" stop-color="#3e7ea2"/>
      <stop offset=".99" stop-color="#2a5f8b"/>
      <stop offset="1" stop-color="#163f74"/>
    </radialGradient>
    <mask id="uuid-c0dd1dc3-f9ec-4eb6-a932-f02a30fd7f06" data-name="mask-3" x="-2.29" y="-8.18" width="26.75" height="41.35" maskUnits="userSpaceOnUse">
      <rect x="-2.29" y="-8.18" width="26.75" height="41.35" style="fill: #fff;"/>
    </mask>
    <radialGradient id="uuid-ef6800db-51b7-4176-ab9a-627a1da91757" cx="-17.09" cy="211.01" fx="-17.09" fy="211.01" r="5.6" gradientTransform="translate(46.73 -409.77) scale(2)" gradientUnits="userSpaceOnUse">
      <stop offset=".81" stop-color="#2a973a"/>
      <stop offset=".84" stop-color="#2c9839"/>
      <stop offset=".86" stop-color="#349b39"/>
      <stop offset=".87" stop-color="#42a139"/>
      <stop offset=".88" stop-color="#55a938"/>
      <stop offset=".9" stop-color="#6fb437"/>
      <stop offset=".91" stop-color="#8ec136"/>
      <stop offset=".92" stop-color="#b2d034"/>
      <stop offset=".92" stop-color="#c7d934"/>
      <stop offset=".94" stop-color="#c4d734"/>
      <stop offset=".95" stop-color="#bcd434"/>
      <stop offset=".96" stop-color="#aece34"/>
      <stop offset=".97" stop-color="#99c635"/>
      <stop offset=".98" stop-color="#7fbb36"/>
      <stop offset=".99" stop-color="#5fad37"/>
      <stop offset="1" stop-color="#3a9d39"/>
      <stop offset="1" stop-color="#2a973a"/>
    </radialGradient>
    <linearGradient id="uuid-bf26f4f5-d214-4144-8223-d65bf4427e09" x1="6.62" y1="5.46" x2="18.38" y2="19.54" gradientUnits="userSpaceOnUse">
      <stop offset="0" stop-color="#c3c2c2"/>
      <stop offset=".07" stop-color="#c6c5c5"/>
      <stop offset=".64" stop-color="#dddddc"/>
      <stop offset="1" stop-color="#e6e6e5"/>
    </linearGradient>
    <linearGradient id="uuid-4e6fd275-45ae-4b1b-9e70-961d9bf36fe5" x1="6.23" y1="4.82" x2="18.81" y2="19.88" gradientUnits="userSpaceOnUse">
      <stop offset="0" stop-color="#fff"/>
      <stop offset=".15" stop-color="#f6f6f6"/>
      <stop offset=".41" stop-color="#dedede"/>
      <stop offset=".72" stop-color="#b7b7b7"/>
      <stop offset="1" stop-color="#8f8f8f"/>
    </linearGradient>
  </defs>
  <g id="uuid-73c61f98-d05b-418e-9760-793d01c46344" data-name="icomer">
    <g id="uuid-410829e7-f157-41eb-8948-2674c9e9cdd5" data-name="gen-start-e">
      <g>
        <path d="m12.5,1.32c6.17,0,11.18,5.02,11.18,11.18s-5.02,11.18-11.18,11.18S1.32,18.67,1.32,12.5,6.33,1.32,12.5,1.32m0-1.32C5.6,0,0,5.6,0,12.5s5.6,12.5,12.5,12.5,12.5-5.6,12.5-12.5S19.4,0,12.5,0h0Z" style="fill: url(#uuid-e0dd0618-3e7e-40ca-b1eb-9430245af9f7);"/>
        <path d="m12.52,2.76c5.38,0,9.76,4.38,9.76,9.76s-4.38,9.76-9.76,9.76S2.76,17.9,2.76,12.52,7.14,2.76,12.52,2.76m0-1.44C6.34,1.32,1.32,6.34,1.32,12.52s5.02,11.2,11.2,11.2,11.2-5.02,11.2-11.2S18.71,1.32,12.52,1.32h0Z" style="fill: url(#uuid-cd833461-d431-4fd7-bce3-5dc4d0e5a268);"/>
        <g style="fill: none; mask: url(#uuid-4b60b6f2-a0dc-42c3-b5ad-9d7aee0ebcfb);">
          <path d="m12.52,2.76c5.38,0,9.76,4.38,9.76,9.76s-4.38,9.76-9.76,9.76S2.76,17.9,2.76,12.52,7.14,2.76,12.52,2.76m0-1.44C6.34,1.32,1.32,6.34,1.32,12.52s5.02,11.2,11.2,11.2,11.2-5.02,11.2-11.2S18.71,1.32,12.52,1.32h0Z" style="fill: url(#uuid-4990907c-26a3-4e8f-9e40-fd68b2d9c094);"/>
        </g>
        <g style="fill: none; mask: url(#uuid-01b559c9-6f91-46dc-99b4-44e3566aefd4);">
          <path d="m12.52,2.76c5.38,0,9.76,4.38,9.76,9.76s-4.38,9.76-9.76,9.76S2.76,17.9,2.76,12.52,7.14,2.76,12.52,2.76m0-1.44C6.34,1.32,1.32,6.34,1.32,12.52s5.02,11.2,11.2,11.2,11.2-5.02,11.2-11.2S18.71,1.32,12.52,1.32h0Z" style="fill: url(#uuid-f4a27fa6-8474-4cbe-8755-be86f7ecc038);"/>
        </g>
        <g style="fill: none; mask: url(#uuid-ee4e74ba-6631-4ba1-9488-e2554573eece);">
          <path d="m12.52,2.74c5.38,0,9.76,4.38,9.76,9.76s-4.38,9.76-9.76,9.76S2.76,17.88,2.76,12.5,7.14,2.74,12.52,2.74m0-1.44C6.34,1.3,1.32,6.31,1.32,12.5s5.02,11.2,11.2,11.2,11.2-5.02,11.2-11.2S18.71,1.3,12.52,1.3h0Z" style="fill: url(#uuid-d726d695-23e2-4bcc-a5d8-1382d81a32a3);"/>
        </g>
        <g style="fill: none; mask: url(#uuid-c0dd1dc3-f9ec-4eb6-a932-f02a30fd7f06);">
          <path d="m12.52,2.76c5.38,0,9.76,4.38,9.76,9.76s-4.38,9.76-9.76,9.76S2.76,17.9,2.76,12.52,7.14,2.76,12.52,2.76m0-1.44C6.34,1.32,1.32,6.34,1.32,12.52s5.02,11.2,11.2,11.2,11.2-5.02,11.2-11.2S18.71,1.32,12.52,1.32h0Z" style="fill: url(#uuid-ef6800db-51b7-4176-ab9a-627a1da91757);"/>
        </g>
        <path d="m21.67,12.5c0,5.06-4.1,9.17-9.17,9.17S3.33,17.56,3.33,12.5,7.44,3.33,12.5,3.33c5.06,0,9.17,4.1,9.17,9.17Z" style="fill: url(#uuid-bf26f4f5-d214-4144-8223-d65bf4427e09);"/>
        <path d="m12.52,3.57c4.84,0,8.78,3.94,8.78,8.78s-3.94,8.78-8.78,8.78S3.74,17.19,3.74,12.35,7.68,3.57,12.52,3.57h0m0-1.03C7.1,2.54,2.71,6.93,2.71,12.35s4.39,9.81,9.81,9.81,9.81-4.39,9.81-9.81S17.94,2.54,12.52,2.54h0Z" style="fill: url(#uuid-4e6fd275-45ae-4b1b-9e70-961d9bf36fe5);"/>
      </g>
      <path d="m14.26,12.21h-3.27v3.03h3.64v.91h-4.72V7.74h4.54v.91h-3.45v2.66h3.27v.9Z" style="fill: #231815;"/>
    </g>
  </g>
</svg>